<?xml version="1.0" encoding="utf-8"?>
<!-- Generator: Adobe Illustrator 16.0.0, SVG Export Plug-In . SVG Version: 6.00 Build 0)  -->
<!DOCTYPE svg PUBLIC "-//W3C//DTD SVG 1.1//EN" "http://www.w3.org/Graphics/SVG/1.1/DTD/svg11.dtd">
<svg version="1.1" id="Layer_1" xmlns="http://www.w3.org/2000/svg" xmlns:xlink="http://www.w3.org/1999/xlink" x="0px" y="0px"
	 width="161.355px" height="202.064px" viewBox="0 0 161.355 202.064" enable-background="new 0 0 161.355 202.064"
	 xml:space="preserve">
<path fill="#D19A7C" d="M41.529,52.243c-1.773,2.048-3.549,4.053-5.341,5.985C12.869,83.388-2.5,127.836,22.932,155.256
	c14.828,15.986,32.805,32.349,54.61,32.417c13.638,0.043,26.46-6.479,37.652-14.271c10.213-7.11,19.72-15.558,26.355-26.086
	c17.343-27.513,12.146-62.99,6.337-94.99c-2.189-12.061-4.712-24.813-12.998-33.845C121.752,4.163,98.018,4.543,81.06,14.033
	C65.172,22.921,53.399,38.54,41.529,52.243z"/>
</svg>
